<?xml version="1.0" encoding="UTF-8"?> <svg xmlns="http://www.w3.org/2000/svg" id="Layer_1" version="1.1" viewBox="0 0 245 92"><defs><style> .st0 { fill: #f16022; } .st1 { fill: #fff; } .st2 { fill: #2c353a; stroke: #2c353a; stroke-miterlimit: 10; stroke-width: 0px; } </style></defs><path class="st0" d="M64.9,22.9l-24.9-14.4c-4.7-2.7-5.3-2.7-10,0L5,22.9c-2.7,1.6-5,5.5-5,8.7v28.8c0,3.2,2.3,7.1,5,8.7l24.9,14.4c4.7,2.7,5.3,2.7,10,0l24.9-14.4c2.7-1.6,5-5.5,5-8.7v-28.8c0-3.2-2.2-7.1-5-8.7Z"></path><g><path class="st1" d="M33.9,54.3h0s-5.6,0-5.6,0c-1.5,0-3,.1-4.3-.1-3.6-.6-6.2-2.3-8.5-5.4-2-2.8-2.7-6.3-1.9-9.9.8-3.9,3.4-7.4,6.8-9.4l6.4-3.7c1-.6,6.3-3.6,7.3-4.2.5-.3.9,0,.9.7,0,.5,0,4.8,0,5.3s-.4,1.4-.9,1.7c-1,.6-2.9,1.7-3.9,2.3l-6.4,3.7c-1.8,1.1-3.2,2.9-3.6,5-.3,1.2-.3,2.9.8,4.5,1.3,1.8,2.4,2.9,5.3,2.9,2.8,0,14,0,16.9,0,1.8,0,3.3,1.2,3.3,2.9,0,1.2-.7,2.3-1.7,2.9l-9.5,5.5c-.1,0-.3,0-.3,0,0,0,0,0,0-.1v-3.5c0-.5-.4-1-1-1Z"></path><path class="st1" d="M56.3,53.1c-.8,3.9-3.4,7.4-6.9,9.4l-6.4,3.7c-1,.6-6.3,3.6-7.3,4.2-.5.3-.9,0-.9-.7s0-4.8,0-5.3c0-.7.4-1.4.9-1.7,1-.6,2.9-1.7,3.9-2.3l6.4-3.7c1.8-1.1,3.2-2.9,3.6-5,.3-1.2.3-2.9-.8-4.5-1.3-1.8-2.4-2.9-5.3-2.9-2.8,0-14,0-16.9,0-1.8,0-3.3-1.2-3.3-2.9,0-1.2.7-2.3,1.7-2.9l9.5-5.5c.1,0,.3,0,.3,0,0,0,0,0,0,.1v3.5c0,.5.4,1,1,1h5.6c1.5,0,3-.1,4.3.1,3.6.6,6.2,2.3,8.5,5.4,2,2.8,2.7,6.3,1.9,9.9Z"></path></g><g><path class="st2" d="M90.6,25.9h-3.3v5.1h-1.5v-13.2h4.9c2.4,0,3.2,1.8,3.2,4.1s-.8,4-3.3,4ZM90.4,19.3h-3.1v5.2h3.1c1.4,0,1.9-1,1.9-2.6s-.4-2.6-1.9-2.6Z"></path><path class="st2" d="M96.2,21.9h1.5v6.9c0,.9.5,1.2,1.3,1.2s2.1-.4,2.8-.8v-7.3h1.5v9.2h-1.2v-.6h-.2c-1,.6-2,.8-3.2.8s-2.6-.8-2.6-2.3v-7.1Z"></path><path class="st2" d="M113.1,26.7h-5.5c0,2.7,1.1,3.2,2.5,3.2s1.8-.1,2.6-.3v1.3c-.6.2-1.7.3-2.5.3-2.7,0-4.2-1.1-4.2-4.9s1.2-4.7,3.8-4.7,3.2,1.5,3.2,3.8v1.1ZM111.6,25.4c0-1.4-.1-2.5-1.7-2.5s-2.1.5-2.2,2.5h4Z"></path><path class="st2" d="M120.3,23.1c-.2,0-.4,0-.6,0-1,0-1.8.4-2.4,1.2v6.7h-1.5v-9.2h1.1l.2.9h0c.7-.8,1.4-1.1,2.5-1.1s.5,0,.7,0v1.4Z"></path><path class="st2" d="M125,23.2v5.8c0,.5.2.9.9.9s1.2,0,1.9-.2v1.3c-.7.2-1.3.3-2,.3-1.8,0-2.3-.9-2.3-2.1v-5.9h-1.4v-1.2l1.4-.2v-2.5h1.5v2.5h2.8v1.4h-2.8Z"></path><path class="st2" d="M133.6,31.2c-2.6,0-4-1.4-4-4.8s1.3-4.8,4-4.8,4,1.3,4,4.8-1.3,4.8-4,4.8ZM133.6,23c-1.5,0-2.4.7-2.4,3.4s1,3.4,2.4,3.4,2.4-.7,2.4-3.4-1-3.4-2.4-3.4Z"></path><path class="st2" d="M150.6,25.6l2.8,5.5h-1.7l-2.7-5.5h-2.2v5.5h-1.5v-13.2h4.9c2.4,0,3.2,1.7,3.2,3.9s-.7,3.6-2.7,3.8ZM149.8,19.3h-3.1v4.8h3.1c1.4,0,1.9-1,1.9-2.4s-.4-2.4-1.9-2.4Z"></path><path class="st2" d="M156,19.7v-1.9h1.6v1.9h-1.6ZM156,31.1v-9.2h1.5v9.2h-1.5Z"></path><path class="st2" d="M164.5,21.7c.7,0,1.4,0,2.1.2v1.3c-.7-.1-1.5-.2-2.1-.2-2.3,0-2.6,1.9-2.6,3.5,0,2.7,1,3.4,2.5,3.4s1.4,0,2.2-.2v1.3c-.6.2-1.5.2-2.1.2-2.7,0-4.1-1.2-4.1-4.7s1.4-4.8,4.1-4.8Z"></path><path class="st2" d="M172.8,31.2c-2.6,0-4-1.4-4-4.8s1.3-4.8,4-4.8,4,1.3,4,4.8-1.3,4.8-4,4.8ZM172.8,23c-1.5,0-2.4.7-2.4,3.4s1,3.4,2.4,3.4,2.4-.7,2.4-3.4-1-3.4-2.4-3.4Z"></path><path class="st2" d="M88.1,51.7c-1,0-2.2,0-2.9-.2v-1.5c1,.1,2,.2,3,.2s2.8-.4,2.8-1.8-.6-1.4-1.2-1.9l-2.7-1.9c-.9-.6-2.1-1.5-2.1-3.4s1.9-3.1,4.1-3.1,1.9,0,2.8.2v1.5c-.9,0-1.9-.2-2.9-.2s-2.3.3-2.3,1.6.6,1.4,1.1,1.8l2.8,2c1.3.9,2.1,1.7,2.1,3.4,0,2.6-2.3,3.3-4.6,3.3Z"></path><path class="st2" d="M99.1,42.1c.7,0,1.4,0,2.1.2v1.3c-.7-.1-1.5-.2-2.1-.2-2.3,0-2.6,1.9-2.6,3.5,0,2.7,1,3.4,2.5,3.4s1.4,0,2.2-.2v1.3c-.6.2-1.5.2-2.1.2-2.7,0-4.1-1.2-4.1-4.7s1.4-4.8,4.1-4.8Z"></path><path class="st2" d="M103.9,40.1v-1.9h1.6v1.9h-1.6ZM103.9,51.5v-9.2h1.5v9.2h-1.5Z"></path><path class="st2" d="M115.3,47.1h-5.5c0,2.7,1.1,3.2,2.5,3.2s1.8-.1,2.6-.3v1.3c-.6.2-1.7.3-2.5.3-2.7,0-4.2-1.1-4.2-4.9s1.2-4.7,3.8-4.7,3.2,1.5,3.2,3.8v1.1ZM113.8,45.8c0-1.4-.1-2.5-1.7-2.5s-2.1.5-2.2,2.5h4Z"></path><path class="st2" d="M125.2,51.5h-1.5v-6.9c0-.9-.5-1.2-1.3-1.2s-2.1.4-2.8.8v7.3h-1.5v-9.2h1.2v.6h.2c1-.6,2-.8,3.2-.8s2.6.8,2.6,2.3v7.1Z"></path><path class="st2" d="M131.9,42.1c.7,0,1.4,0,2.1.2v1.3c-.7-.1-1.5-.2-2.1-.2-2.3,0-2.6,1.9-2.6,3.5,0,2.7,1,3.4,2.5,3.4s1.4,0,2.2-.2v1.3c-.6.2-1.5.2-2.1.2-2.7,0-4.1-1.2-4.1-4.7s1.4-4.8,4.1-4.8Z"></path><path class="st2" d="M143.4,47.1h-5.5c0,2.7,1.1,3.2,2.5,3.2s1.8-.1,2.6-.3v1.3c-.6.2-1.7.3-2.5.3-2.7,0-4.2-1.1-4.2-4.9s1.2-4.7,3.8-4.7,3.2,1.5,3.2,3.8v1.1ZM141.9,45.8c0-1.4-.1-2.5-1.7-2.5s-2.1.5-2.2,2.5h4Z"></path><path class="st2" d="M148.4,51.2c-.3.9-.9,2-1.3,2.7h-1.2c.2-.6.7-2.2.8-2.7v-1.8s1.8,0,1.8,0v1.8Z"></path><path class="st2" d="M160.5,39.7v11.7h-1.5v-11.7h-3.5v-1.4h8.5v1.4h-3.5Z"></path><path class="st2" d="M171.5,47.1h-5.5c0,2.7,1.1,3.2,2.5,3.2s1.8-.1,2.6-.3v1.3c-.6.2-1.7.3-2.5.3-2.7,0-4.2-1.1-4.2-4.9s1.2-4.7,3.8-4.7,3.2,1.5,3.2,3.8v1.1ZM170,45.8c0-1.4-.1-2.5-1.7-2.5s-2.1.5-2.2,2.5h4Z"></path><path class="st2" d="M177.9,42.1c.7,0,1.4,0,2.1.2v1.3c-.7-.1-1.5-.2-2.1-.2-2.3,0-2.6,1.9-2.6,3.5,0,2.7,1,3.4,2.5,3.4s1.4,0,2.2-.2v1.3c-.6.2-1.5.2-2.1.2-2.7,0-4.1-1.2-4.1-4.7s1.4-4.8,4.1-4.8Z"></path><path class="st2" d="M189.9,51.5h-1.5v-6.9c0-.9-.5-1.2-1.3-1.2s-2.1.4-2.8.8v7.3h-1.5v-13.8h1.5v5.1h0c.9-.5,1.9-.7,3-.7s2.6.8,2.6,2.3v7.1Z"></path><path class="st2" d="M200,51.5h-1.5v-6.9c0-.9-.5-1.2-1.3-1.2s-2.1.4-2.8.8v7.3h-1.5v-9.2h1.2v.6h.2c1-.6,2-.8,3.2-.8s2.6.8,2.6,2.3v7.1Z"></path><path class="st2" d="M206.6,51.7c-2.6,0-4-1.4-4-4.8s1.3-4.8,4-4.8,4,1.3,4,4.8-1.3,4.8-4,4.8ZM206.6,43.4c-1.5,0-2.4.7-2.4,3.4s1,3.4,2.4,3.4,2.4-.7,2.4-3.4-1-3.4-2.4-3.4Z"></path><path class="st2" d="M213.5,51.5v-13.8h1.5v13.8h-1.5Z"></path><path class="st2" d="M221.8,51.7c-2.6,0-4-1.4-4-4.8s1.3-4.8,4-4.8,4,1.3,4,4.8-1.3,4.8-4,4.8ZM221.8,43.4c-1.5,0-2.4.7-2.4,3.4s1,3.4,2.4,3.4,2.4-.7,2.4-3.4-1-3.4-2.4-3.4Z"></path><path class="st2" d="M236.6,43.5c-.5.1-1.3.2-2,.2h0c.3.5.5,1.1.5,1.8,0,2.6-1.4,3.5-3.5,3.5s-.6,0-.9,0l-.4.6c-.1.2-.3.4-.3.6s.1.3.5.3h2.8c1.9,0,2.6,1,2.6,2.3s-.3,1.5-.8,1.9c-.9.8-2.4,1-3.7,1s-2.2-.2-2.9-.8c-.4-.4-.6-.8-.6-1.5s.4-1.4,1-1.9h0c-.3-.2-.6-.6-.6-1.1s.3-.9.5-1.2l.5-.7h0c-.7-.5-1.2-1.4-1.2-3,0-2.5,1.4-3.4,3.5-3.4s1.6.3,2.6.3,1.7-.1,2.2-.2v1.3ZM233.2,51.7h-2.8c-.6.5-1,.9-1,1.4s0,.6.3.7c.4.4,1.2.4,1.9.4s1.8,0,2.4-.6c.3-.2.4-.6.4-1s-.3-.9-1.2-.9ZM231.6,43.4c-1.1,0-2,.4-2,2.1s.9,2.2,2,2.2,2-.4,2-2.2-.9-2.1-2-2.1Z"></path><path class="st2" d="M244.3,42.3h1.5l-3.4,10.1c-.6,1.9-1.1,3.2-3.3,3.2s-.8,0-1.2-.2v-1.3c.4,0,.8.1,1.1.1.5,0,.9,0,1.2-.4.4-.4.6-.9.8-1.7l-3.3-9.8h1.6l2.1,6.4c.1.4.2.8.4,1.4h0c.1-.6.2-1,.4-1.4l2.1-6.4Z"></path><path class="st2" d="M89.7,65.4c.5.9,1.7,2.6,2.5,3.4.4-.6.7-1.5.8-2.2l1.5.4c-.2,1-.6,2.1-1.2,2.9.4.5,1,.7,1.5.7s.4,0,.6,0v1.5c-.2,0-.5,0-.8,0-.8,0-1.8-.3-2.4-1-.8.6-1.9,1-3,1-2.8,0-3.7-1.7-3.7-3.3s1.1-2.9,2.1-3.8c-.8-1.2-1.3-2.3-1.3-3.5,0-1.8.8-3,2.8-3s2.9,1.3,2.9,2.8-1.2,3.2-2.2,4.1ZM91.1,69.9c-.9-.9-2.1-2.7-2.7-3.6-.7.6-1.3,1.5-1.3,2.4s.7,1.9,2,1.9,1.5-.2,2-.7ZM89.1,59.9c-.6,0-1.2.3-1.2,1.5s.3,1.8,1,2.7c.7-.6,1.5-1.5,1.5-2.6s-.6-1.6-1.3-1.6Z"></path><path class="st2" d="M107.9,66.4l2.8,5.5h-1.7l-2.7-5.5h-2.2v5.5h-1.5v-13.2h4.9c2.4,0,3.2,1.7,3.2,3.9s-.7,3.6-2.7,3.8ZM107.2,60.1h-3.1v4.8h3.1c1.4,0,1.9-1,1.9-2.4s-.4-2.4-1.9-2.4Z"></path><path class="st2" d="M119.7,67.5h-5.5c0,2.7,1.1,3.2,2.5,3.2s1.8-.1,2.6-.3v1.3c-.6.2-1.7.3-2.5.3-2.7,0-4.2-1.1-4.2-4.9s1.2-4.7,3.8-4.7,3.2,1.5,3.2,3.8v1.1ZM118.2,66.3c0-1.4-.1-2.5-1.7-2.5s-2.1.5-2.2,2.5h4Z"></path><path class="st2" d="M124.8,72.1c-.6,0-1.8,0-2.5-.2v-1.3c.6,0,1.5.2,2.4.2s2-.3,2-1.1-.4-.8-.8-1.1l-2.1-1.3c-.8-.5-1.7-1.1-1.7-2.5s1.2-2.3,3.1-2.3,1.7,0,2.4.2v1.3c-.5,0-1.3-.2-2.1-.2s-1.9.1-1.9.9.4.9.7,1.1l2.2,1.4c1.1.7,1.7,1.2,1.7,2.4s-1.6,2.4-3.4,2.4Z"></path><path class="st2" d="M137.5,67.5h-5.5c0,2.7,1.1,3.2,2.5,3.2s1.8-.1,2.6-.3v1.3c-.6.2-1.7.3-2.5.3-2.7,0-4.2-1.1-4.2-4.9s1.2-4.7,3.8-4.7,3.2,1.5,3.2,3.8v1.1ZM136,66.3c0-1.4-.1-2.5-1.7-2.5s-2.1.5-2.2,2.5h4Z"></path><path class="st2" d="M145.3,71.9v-.6h-.1c-.7.4-1.7.7-2.6.7-1.5,0-2.9-.7-2.9-2.7s0-1.3.7-1.9c1-1,3.1-1,4.7-1v-1.4c0-1-.5-1.2-1.6-1.2s-2.2.2-2.9.4v-1.3c.6-.2,2-.4,2.9-.4,1.7,0,3.1.5,3.1,2.3v7.1h-1.2ZM145,67.7c-1,0-2.9,0-3.5.6s-.3.7-.3,1c0,1.1.7,1.4,1.5,1.4s1.8-.3,2.3-.7v-2.3Z"></path><path class="st2" d="M154,64c-.2,0-.4,0-.6,0-1,0-1.8.4-2.4,1.2v6.7h-1.5v-9.2h1.1l.2.9h0c.7-.8,1.4-1.1,2.5-1.1s.5,0,.7,0v1.4Z"></path><path class="st2" d="M159.7,62.5c.7,0,1.4,0,2.1.2v1.3c-.7-.1-1.5-.2-2.1-.2-2.3,0-2.6,1.9-2.6,3.5,0,2.7,1,3.4,2.5,3.4s1.4,0,2.2-.2v1.3c-.6.2-1.5.2-2.1.2-2.7,0-4.1-1.2-4.1-4.7s1.4-4.8,4.1-4.8Z"></path><path class="st2" d="M171.7,71.9h-1.5v-6.9c0-.9-.5-1.2-1.3-1.2s-2.1.4-2.8.8v7.3h-1.5v-13.8h1.5v5.1h0c.9-.5,1.9-.7,3-.7s2.6.8,2.6,2.3v7.1Z"></path><path class="st2" d="M183.4,60.1v11.7h-1.5v-11.7h-3.5v-1.4h8.5v1.4h-3.5Z"></path><path class="st2" d="M192.2,64c-.2,0-.4,0-.6,0-1,0-1.8.4-2.4,1.2v6.7h-1.5v-9.2h1.1l.2.9h0c.7-.8,1.4-1.1,2.5-1.1s.5,0,.7,0v1.4Z"></path><path class="st2" d="M194.4,62.7h1.5v6.9c0,.9.5,1.2,1.3,1.2s2.1-.4,2.8-.8v-7.3h1.5v9.2h-1.2v-.6h-.2c-1,.6-2,.8-3.2.8s-2.6-.8-2.6-2.3v-7.1Z"></path><path class="st2" d="M206.9,72.1c-.6,0-1.8,0-2.5-.2v-1.3c.6,0,1.5.2,2.4.2s2-.3,2-1.1-.4-.8-.8-1.1l-2.1-1.3c-.8-.5-1.7-1.1-1.7-2.5s1.2-2.3,3.1-2.3,1.7,0,2.4.2v1.3c-.5,0-1.3-.2-2.1-.2s-1.9.1-1.9.9.4.9.7,1.1l2.2,1.4c1.1.7,1.7,1.2,1.7,2.4s-1.6,2.4-3.4,2.4Z"></path><path class="st2" d="M214.9,64.1v5.8c0,.5.2.9.9.9s1.2,0,1.9-.2v1.3c-.7.2-1.3.3-2,.3-1.8,0-2.3-.9-2.3-2.1v-5.9h-1.4v-1.2l1.4-.2v-2.5h1.5v2.5h2.8v1.4h-2.8Z"></path></g></svg> 